HIERARCHY
ROOT hip
{
	OFFSET 0.000000 0.000000 0.000000 
	CHANNELS 6 Xposition Yposition Zposition Xrotation Zrotation Yrotation
	JOINT abdomen
	{
		OFFSET 0.000000 3.402643 0.000000 
		CHANNELS 3 Xrotation Zrotation Yrotation
		JOINT chest
		{
			OFFSET 0.000000 8.438565 -0.680529 
			CHANNELS 3 Xrotation Zrotation Yrotation
			JOINT neck
			{
				OFFSET 0.000000 10.207942 -0.272212 
				CHANNELS 3 Xrotation Zrotation Yrotation
				JOINT head
				{
					OFFSET 0.000000 3.130431 0.000000 
					CHANNELS 3 Xrotation Zrotation Yrotation
					End Site
					{
						OFFSET 0.000000 3.130435 0.000000 
					}
				}
			}
			JOINT lCollar
			{
				OFFSET 3.470700 6.669187 -0.816635 
				CHANNELS 3 Yrotation Zrotation Xrotation
				JOINT lShldr
				{
					OFFSET 3.198488 0.000000 0.000000 
					CHANNELS 3 Zrotation Yrotation Xrotation
					JOINT lForeArm
					{
						OFFSET 10.139888 0.000000 0.000000 
						CHANNELS 3 Yrotation Zrotation Xrotation
						JOINT lHand
						{
							OFFSET 8.370511 0.000000 0.000000 
							CHANNELS 3 Zrotation Yrotation Xrotation
							End Site
							{
								OFFSET 4.083176 0.000000 0.000000 
							}
						}
					}
				}
			}
			JOINT rCollar
			{
				OFFSET -3.470700 6.669187 -0.816635 
				CHANNELS 3 Yrotation Zrotation Xrotation
				JOINT rShldr
				{
					OFFSET -3.198488 0.000000 0.000000 
					CHANNELS 3 Zrotation Yrotation Xrotation
					JOINT rForeArm
					{
						OFFSET -10.139888 0.000000 0.000000 
						CHANNELS 3 Yrotation Zrotation Xrotation
						JOINT rHand
						{
							OFFSET -8.370511 0.000000 0.000000 
							CHANNELS 3 Zrotation Yrotation Xrotation
							End Site
							{
								OFFSET -4.083176 0.000000 0.000000 
							}
						}
					}
				}
			}
		}
	}
	JOINT lThigh
	{
		OFFSET 5.308129 -1.633274 1.361059 
		CHANNELS 3 Xrotation Zrotation Yrotation
		JOINT lShin
		{
			OFFSET -2.041588 -20.007561 0.000000 
			CHANNELS 3 Xrotation Zrotation Yrotation
			JOINT lFoot
			{
				OFFSET 0.000000 -19.190928 -1.224953 
				CHANNELS 3 Xrotation Yrotation Zrotation
				End Site
				{
					OFFSET 0.000000 -2.449906 4.627600 
				}
			}
		}
	}
	JOINT rThigh
	{
		OFFSET -5.308129 -1.633274 1.361059 
		CHANNELS 3 Xrotation Zrotation Yrotation
		JOINT rShin
		{
			OFFSET 2.041588 -20.007561 0.000000 
			CHANNELS 3 Xrotation Zrotation Yrotation
			JOINT rFoot
			{
				OFFSET 0.000000 -19.190928 -1.224953 
				CHANNELS 3 Xrotation Yrotation Zrotation
				End Site
				{
					OFFSET 0.000000 -2.449906 4.627600 
				}
			}
		}
	}
}
MOTION
Frames: 19
Frame Time: 0.033333
75.061165 52.317371 -57.729599 -13.613280 -14.199218 121.833542 32.301159 -20.104923 -6.292418 -17.998047 4.394532 1.337891 51.063168 8.107644 2.471410 -31.748047 11.533201 -15.458987 2.000000 -2.000000 0.000000 -93.974609 21.767578 -28.281246 -54.436264 -1.487268 -2.071098 2.403405 57.391144 -8.930442 -2.000000 2.000000 0.000000 66.416016 9.287110 -29.296873 82.167557 0.223781 -3.054322 81.414673 -23.634987 -73.145866 -25.134594 12.772625 -0.123607 20.709448 -4.896045 -1.975457 -9.260998 1.487294 1.385072 -16.714157 -0.194422 -16.549116 11.724057 5.156786 0.686914 -7.178103 -2.729149 -3.867000 
75.068703 52.333118 -57.782471 -13.437500 -14.208984 121.618690 32.333473 -20.254316 -6.397438 -17.998047 4.394532 1.513672 51.063168 8.107644 2.471410 -31.884768 11.894530 -15.566407 2.000000 -2.000000 0.000000 -94.111328 21.542969 -28.013994 -54.434635 -1.327303 -2.011980 1.608664 56.862827 -9.882854 -2.000000 2.000000 0.000000 66.601563 9.296875 -29.305063 82.167557 0.223781 -3.054322 81.382500 -23.398232 -72.528969 -24.933346 12.769458 -0.077001 20.545128 -4.863520 -1.985621 -9.237436 1.438470 1.544477 -16.703136 -0.193453 -16.742378 12.080125 5.058389 1.214971 -7.150283 -2.712149 -3.879566 
75.074142 52.341000 -57.821934 -13.437500 -14.208984 121.442924 32.333473 -20.254316 -6.397438 -17.998047 4.394532 1.513672 51.063168 8.107644 2.471410 -32.011719 12.265625 -15.683593 2.000000 -2.000000 0.000000 -94.394531 21.210939 -27.841797 -54.258842 -1.337052 -2.011411 2.400909 56.248554 -9.135273 -2.000000 2.000000 0.000000 66.962898 9.160155 -28.875397 82.325478 0.051675 -3.122955 81.002769 -23.248652 -71.910461 -24.788868 12.594811 -0.062370 20.367039 -4.905669 -1.909818 -9.108968 1.298546 1.454410 -16.596260 -0.427999 -16.030212 12.079211 5.097566 0.711109 -7.044295 -2.830877 -3.522969 
75.072868 52.333118 -57.876667 -13.271485 -14.228516 121.220711 32.376152 -20.407095 -6.496760 -18.173828 4.394531 1.679688 51.063168 8.107644 2.471410 -31.962891 12.587890 -15.937500 2.000000 -2.000000 0.000000 -94.941406 21.669922 -28.306940 -54.447601 -1.666729 -2.129079 2.982660 55.673542 -8.482952 -2.000000 2.000000 0.000000 66.845703 8.759767 -29.023438 82.320129 0.041186 -3.280007 80.512375 -22.867510 -71.046722 -24.532801 12.730096 0.472535 20.189890 -4.970049 -1.944400 -9.062881 1.730168 1.291785 -16.616571 -0.458112 -15.641280 12.075752 5.107992 0.682825 -7.102614 -3.057599 -3.659668 
75.080498 52.341000 -57.928280 -13.076172 -14.238280 120.817917 32.384079 -20.318613 -6.647655 -18.525391 4.414063 1.651142 51.063168 8.107644 2.471410 -31.748047 12.724608 -16.298830 2.000000 -2.000000 0.000000 -95.302734 22.636721 -28.232422 -54.271538 -1.675910 -2.118765 3.022274 55.126751 -8.445173 -2.000000 2.000000 0.000000 67.128906 8.193360 -28.729076 82.519119 0.214031 -3.054886 80.153496 -22.415848 -70.572662 -24.348936 12.740789 0.488670 20.005968 -4.980304 -1.940279 -9.038566 1.817712 1.364809 -16.448978 -0.486850 -15.280066 11.898218 5.175567 0.674015 -7.047384 -3.038192 -3.231680 
75.104347 52.356758 -57.981518 -13.076172 -14.238280 120.642136 32.410957 -20.226738 -6.804328 -18.896484 4.423829 1.796875 51.063168 8.107644 2.471410 -31.542969 12.880859 -16.570089 2.000000 -2.000000 0.000000 -95.859375 23.583984 -28.466795 -54.084404 -1.506197 -2.060215 2.538953 55.418713 -8.601136 -2.000000 2.000000 0.000000 67.167969 7.822266 -27.928356 82.844429 -0.130746 -3.182365 79.419167 -22.177029 -69.316658 -24.132622 12.720370 0.861382 19.665451 -4.931579 -1.894555 -8.866529 1.496057 1.554012 -16.448696 -0.496551 -15.269628 11.902739 5.118720 0.971019 -7.188879 -3.020073 -3.507192 
75.133041 52.364635 -58.048973 -12.910156 -14.238280 120.263680 32.228058 -20.246012 -6.783706 -18.876955 4.765625 1.689453 51.063168 8.107644 2.471410 -31.542969 12.880859 -16.921654 2.000000 -2.000000 0.000000 -96.279297 24.277346 -28.579969 -54.264118 -1.367916 -2.205182 1.977215 55.515526 -8.855393 -2.000000 2.000000 0.000000 67.119141 7.431641 -27.674517 83.023529 0.012501 -3.291440 78.962212 -22.160027 -68.695671 -23.764389 12.506974 1.640536 19.485811 -4.924476 -1.878918 -8.896564 1.455672 1.525031 -16.322666 -0.692143 -14.918352 12.076573 5.069140 1.185849 -6.990570 -3.034234 -3.452059 
75.173653 52.356758 -58.102325 -12.714844 -14.267578 120.026886 32.043800 -20.256227 -6.756276 -18.691404 5.107422 1.768448 51.063168 8.107644 2.471410 -31.718746 12.890625 -17.312273 2.000000 -2.000000 0.000000 -96.123047 24.042969 -28.994143 -54.447601 -1.666729 -2.129079 1.859072 56.218525 -8.208473 -2.000000 2.000000 0.000000 67.080078 6.718750 -27.118000 83.375092 0.002751 -3.292002 78.312576 -22.112215 -67.689774 -23.537102 12.456432 2.163521 19.833849 -4.920319 -2.071891 -9.183253 1.437244 1.726151 -16.164415 -0.720705 -14.567549 12.076571 5.069146 1.185849 -6.986188 -3.268258 -3.172892 
75.219711 52.364635 -58.183903 -12.529297 -14.267578 119.658211 31.861320 -20.278906 -6.723130 -18.681641 5.283204 1.621094 51.063168 8.107644 2.471410 -31.718746 12.890625 -17.829851 2.000000 -2.000000 0.000000 -95.458984 23.974609 -28.736269 -54.447586 -1.676479 -2.128511 0.873092 57.321556 -8.415435 -2.000000 2.000000 0.000000 67.148438 5.927735 -26.464846 83.744789 0.165677 -3.233716 77.742477 -21.755999 -66.365028 -23.179136 12.448606 2.228451 19.489622 -4.990297 -1.898680 -9.015848 1.602015 1.671636 -16.012854 -0.760861 -14.245767 11.897319 5.065163 1.190454 -6.870342 -3.146634 -3.519410 
75.255341 52.372509 -58.250332 -12.529297 -14.267578 119.306641 31.677481 -20.292530 -6.686555 -18.505859 5.273438 1.640599 51.063168 8.107644 2.471410 -31.669924 13.222656 -18.261721 2.000000 -2.000000 0.000000 -94.804688 23.544922 -28.482428 -54.258854 -1.327303 -2.011980 0.211469 58.005444 -8.394148 -2.000000 2.000000 0.000000 67.480469 4.267578 -25.888672 84.254547 -0.025372 -3.313180 77.424530 -21.991856 -65.602791 -22.782181 12.431061 2.598638 19.311613 -5.019066 -1.868930 -8.989603 1.991244 1.477973 -16.042292 -0.800460 -13.710831 12.076571 5.069146 1.185849 -6.833888 -3.057988 -3.232344 
75.286018 52.396145 -58.327847 -12.353516 -14.111328 118.698799 31.493210 -20.302746 -6.659125 -18.505859 5.273438 1.640599 51.063168 8.107644 2.471410 -31.826172 13.427734 -18.962578 2.000000 -2.000000 0.000000 -94.531250 23.720703 -28.457031 -54.623650 -1.667298 -2.138824 0.732369 58.356731 -7.787215 -2.000000 2.000000 0.000000 67.666016 3.095703 -25.507811 84.781898 -0.044870 -3.314305 76.794472 -22.092134 -64.775749 -22.684565 12.606884 3.144132 19.486534 -5.002872 -1.900608 -9.197003 1.730114 1.595860 -15.874681 -0.829206 -13.359428 12.077163 5.067004 1.195398 -6.810070 -3.024526 -3.419570 
75.321655 52.404030 -58.400642 -12.158203 -14.111327 118.112846 31.311127 -20.328833 -6.620225 -18.505859 5.273438 1.640599 51.063168 8.107644 2.471410 -31.933598 13.779295 -19.589844 2.000000 -2.000000 0.000000 -94.287109 23.632814 -27.935535 -54.258842 -1.337052 -2.011411 0.292365 58.562023 -8.170671 -2.000000 2.000000 0.000000 67.587891 2.412109 -25.321852 85.309517 -0.073556 -3.325737 76.481033 -21.976051 -64.079872 -22.279394 12.564698 3.692312 19.313305 -5.009704 -1.886966 -8.930737 1.489456 1.982688 -15.716400 -0.857809 -13.018241 11.897319 5.065161 1.190454 -6.844170 -3.051994 -3.251380 
75.336006 52.419781 -58.474358 -11.992188 -14.130858 117.714844 30.953672 -20.358324 -6.568793 -18.330078 5.263672 1.836834 51.063168 8.107644 2.471410 -31.875000 14.121094 -20.117188 2.000000 -2.000000 0.000000 -94.033203 23.779297 -28.003876 -54.084156 -1.495880 -2.051038 1.349297 58.268917 -7.535034 -2.000000 2.000000 0.000000 67.695313 1.269531 -24.853516 85.679497 0.089933 -3.277196 76.411758 -21.414297 -63.636517 -21.833204 12.693471 4.221817 19.313301 -5.009718 -1.886968 -9.126193 1.687195 1.918727 -15.617476 -1.111211 -12.121487 11.903931 5.107408 0.736301 -6.347604 -2.856794 -3.188287 
75.361343 52.435535 -58.550846 -11.787109 -14.130858 116.970268 30.753759 -20.472906 -6.379021 -18.330078 5.263672 1.836834 51.063168 8.107644 2.471410 -32.011719 14.472657 -20.781254 2.000000 -2.000000 0.000000 -94.326172 24.121096 -27.788977 -54.084156 -1.495880 -2.051038 1.421459 57.429104 -8.141399 -2.000000 2.000000 0.000000 67.949219 0.556641 -24.785061 86.188698 -0.092492 -3.336607 76.078094 -21.453625 -62.878647 -21.411320 12.633507 4.988460 19.132366 -4.924084 -1.869237 -9.123778 1.555201 2.028562 -15.461216 -1.140483 -11.751459 11.903125 5.136439 0.709580 -6.666827 -2.762384 -3.029717 
75.386581 52.435535 -58.608700 -11.611328 -13.974609 116.328117 30.562649 -20.505819 -6.318446 -18.330078 5.263672 1.836834 51.063168 8.107644 2.471410 -31.948999 14.793731 -21.552834 2.000000 -2.000000 0.000000 -94.257813 23.857424 -27.607422 -53.391788 -1.703452 -2.087823 2.221684 56.570541 -8.741795 -2.000000 2.000000 0.000000 68.007813 -0.146484 -24.267567 86.716316 -0.111429 -3.347477 75.781204 -21.671228 -62.347488 -21.021627 12.594961 5.536903 18.946817 -4.943527 -1.827593 -8.903934 1.662544 2.085113 -15.315582 -1.180331 -11.206431 11.900801 5.118256 0.688556 -6.458932 -2.768199 -2.993169 
75.415398 52.443420 -58.688316 -11.425782 -13.994141 115.751953 30.378712 -20.519455 -6.281872 -18.154297 5.087891 1.817273 51.063168 8.107644 2.471410 -32.060551 15.166015 -22.207031 2.000000 -2.000000 0.000000 -94.453125 23.818357 -27.427696 -53.380722 -1.524558 -2.039587 2.766540 56.044163 -8.762061 -2.000000 2.000000 0.000000 68.115234 -1.132813 -24.277538 87.248718 -0.130746 -3.182365 75.538170 -21.666929 -61.738819 -20.600298 12.535097 6.273812 19.305532 -4.939960 -2.021513 -9.385285 1.818091 2.267089 -15.158512 -1.219148 -10.835641 11.724317 5.147117 0.462091 -6.476497 -2.522127 -3.279028 
75.427879 52.459167 -58.756474 -11.240234 -13.994140 115.185539 30.194759 -20.533089 -6.245296 -18.154297 5.087891 1.993053 51.063168 8.107644 2.471410 -32.216801 15.361328 -22.890627 2.000000 -2.000000 0.000000 -94.746094 23.876955 -27.568357 -53.391788 -1.703452 -2.087823 3.027321 55.654114 -9.342184 -2.000000 2.000000 0.000000 67.812500 -1.650391 -23.965126 87.600555 -0.149682 -3.193236 75.699707 -21.725214 -61.586708 -19.948605 12.644443 6.856208 18.946991 -4.940283 -1.846568 -9.048679 1.814523 2.203249 -14.845481 -1.257964 -10.154892 11.725545 5.118271 0.479129 -6.472314 -2.371013 -3.382066 
75.456474 52.474926 -58.817444 -11.064454 -13.837891 114.414063 30.002409 -20.555775 -6.215577 -18.154297 5.087891 1.993053 51.063168 8.107644 2.471410 -32.158203 15.693358 -23.681644 2.000000 -2.000000 0.000000 -95.117188 24.062500 -27.261642 -53.213089 -1.364592 -1.980469 2.325426 55.349987 -10.005040 -2.000000 2.000000 0.000000 67.880859 -2.558594 -23.408207 88.127800 -0.199234 -2.844115 76.005890 -21.948450 -61.403488 -19.547127 12.584964 7.572781 18.934334 -4.953049 -1.827355 -9.207371 1.979819 2.145326 -14.696598 -1.308437 -9.648049 11.722346 5.124312 0.499140 -6.102889 -2.034928 -3.136410 
75.476837 52.474926 -58.880402 -10.703126 -13.857422 113.623047 29.819817 -20.578463 -6.182432 -18.154297 5.087891 1.993053 51.063168 8.107644 2.471410 -32.314453 15.888671 -24.316408 2.000000 -2.000000 0.000000 -94.921875 24.072268 -27.333982 -53.215557 -1.653570 -2.071175 3.182761 55.136909 -9.716884 -2.000000 2.000000 0.000000 67.451172 -3.349610 -23.251953 88.660332 -0.198260 -3.029844 76.457481 -22.180162 -61.283367 -19.127527 12.536236 8.162282 18.957020 -5.021945 -1.849730 -9.346971 2.162541 2.300699 -14.585758 -1.522639 -9.123267 11.719974 5.103725 0.516898 -6.246341 -2.030976 -3.309485 
